<svg version="1.1" id="Layer_1" xmlns="http://www.w3.org/2000/svg" xmlns:xlink="http://www.w3.org/1999/xlink" x="0px" y="0px"
	 width="100%" viewBox="0 0 222 192" enable-background="new 0 0 222 192" xml:space="preserve">

<path fill="#64C679" opacity="1.000000" stroke="none" 
	d="
M54.794853,160.369797 
	C50.675175,156.435684 49.177708,151.363144 49.161682,145.938614 
	C49.069397,114.703819 48.932941,83.466309 49.323936,52.236134 
	C49.379951,47.762146 52.213181,43.322929 54.442520,39.004662 
	C55.415989,40.895611 55.960545,42.649174 55.962910,44.403469 
	C56.012234,80.975296 56.019863,117.547241 55.948677,154.118988 
	C55.944618,156.203339 55.196613,158.286224 54.794853,160.369797 
z"/>
<path fill="#479FF8" opacity="1.000000" stroke="none" 
	d="
M110.869904,30.644859 
	C112.338074,30.413074 113.806244,30.181290 115.640656,30.503826 
	C116.005020,76.715408 116.003143,122.372673 116.001274,168.029938 
	C114.498421,167.965988 112.995575,167.902039 111.214539,167.138641 
	C110.914207,121.174423 110.892052,75.909645 110.869904,30.644859 
z"/>
<path fill="#3577F7" opacity="1.000000" stroke="none" 
	d="
M138.049744,149.927444 
	C136.779053,152.771255 135.508347,155.615067 133.615051,158.603333 
	C132.661896,157.704315 132.043732,156.661224 132.042343,155.617310 
	C131.992767,118.319305 131.979843,81.021164 132.091156,43.723419 
	C132.094925,42.460548 133.430557,41.201653 134.145386,39.940903 
	C135.252426,42.211662 136.359482,44.482422 137.674713,47.469830 
	C137.916672,52.846226 137.970398,57.505932 137.980911,62.165733 
	C138.043213,89.792160 138.095490,117.418602 138.095398,145.406769 
	C138.077057,146.497467 138.114456,147.226440 138.084015,148.280426 
	C138.027359,149.046127 138.038559,149.486786 138.049744,149.927444 
z"/>
<path fill="#DF69D7" opacity="1.000000" stroke="none" 
	d="
M138.345764,150.099731 
	C138.038559,149.486786 138.027359,149.046127 138.306671,148.094482 
	C138.448486,146.737350 138.299805,145.891190 138.151138,145.045044 
	C138.095490,117.418602 138.043213,89.792160 137.980911,62.165733 
	C137.970398,57.505932 137.916672,52.846226 137.900833,47.745178 
	C139.043106,44.320168 140.167450,41.336460 141.928650,38.329224 
	C143.043259,40.313557 143.932663,42.320423 143.937561,44.329445 
	C144.022537,79.150963 144.022705,113.972794 143.953293,148.794388 
	C143.947754,151.577866 143.297943,154.360046 142.947525,157.142838 
	C141.512268,154.852570 140.077026,152.562302 138.345764,150.099731 
z"/>
<path fill="#3981F7" opacity="1.000000" stroke="none" 
	d="
M134.039856,39.608711 
	C133.430557,41.201653 132.094925,42.460548 132.091156,43.723419 
	C131.979843,81.021164 131.992767,118.319305 132.042343,155.617310 
	C132.043732,156.661224 132.661896,157.704315 133.364975,158.859848 
	C132.072433,160.689453 130.407364,162.406998 128.348114,163.770065 
	C127.636024,161.303299 127.043961,159.191422 127.040924,157.078674 
	C126.985313,118.371063 126.980186,79.663315 127.051537,40.955757 
	C127.055702,38.694576 127.799553,36.434757 128.199188,34.174309 
	C130.110901,35.875050 132.022598,37.575787 134.039856,39.608711 
z"/>
<path fill="#64CED2" opacity="1.000000" stroke="none" 
	d="
M89.584641,158.347214 
	C87.943245,160.183136 86.301842,162.019058 84.283859,163.545868 
	C83.605057,160.957138 83.042542,158.677872 83.039238,156.397781 
	C82.979774,115.371284 82.987877,74.344681 82.981514,33.318100 
	C85.082047,35.239380 87.182579,37.160660 89.021240,39.668137 
	C88.506844,41.358906 88.034767,42.463245 88.033600,43.568085 
	C87.994720,80.364182 87.982605,117.160370 88.067291,153.956314 
	C88.070663,155.421097 89.056541,156.883636 89.584641,158.347214 
z"/>
<path fill="#65CFE0" opacity="1.000000" stroke="none" 
	d="
M89.849884,158.164490 
	C89.056541,156.883636 88.070663,155.421097 88.067291,153.956314 
	C87.982605,117.160370 87.994720,80.364182 88.033600,43.568085 
	C88.034767,42.463245 88.506844,41.358906 89.147263,39.988403 
	C90.702728,42.202148 91.870285,44.681835 93.017609,48.007450 
	C92.999283,82.246620 93.001190,115.639870 93.111908,149.291412 
	C93.474937,150.046509 93.729149,150.543320 93.983353,151.040115 
	C92.693947,153.354004 91.404541,155.667892 89.849884,158.164490 
z"/>
<path fill="#57BEF9" opacity="1.000000" stroke="none" 
	d="
M94.106834,151.356934 
	C93.729149,150.543320 93.474937,150.046509 93.418350,149.000885 
	C93.744331,147.476212 93.984688,146.500397 93.984848,145.524536 
	C93.990059,112.992218 93.972336,80.459900 93.957970,47.927586 
	C94.767868,45.746227 95.577766,43.564865 96.970642,41.408333 
	C98.035599,43.319977 98.933380,45.205795 98.937920,47.093761 
	C99.022018,82.057922 99.029694,117.022438 98.908173,151.986374 
	C98.902267,153.685379 97.565125,155.379761 96.847885,157.076279 
	C95.975357,155.275436 95.102837,153.474609 94.106834,151.356934 
z"/>
<path fill="#A25CCD" opacity="1.000000" stroke="none" 
	d="
M160.013687,165.595901 
	C158.852890,165.571960 157.692078,165.548019 156.257812,164.839447 
	C155.993759,118.838539 156.003159,73.522270 156.012558,28.205994 
	C158.160965,27.974993 160.309387,27.743994 162.734512,27.999790 
	C163.007889,28.659988 163.004562,28.833389 162.585297,29.019753 
	C161.445847,30.761629 160.094925,32.488945 160.090515,34.219688 
	C159.978973,78.011543 160.008728,121.803757 160.013687,165.595901 
z"/>
<path fill="#62C8A4" opacity="1.000000" stroke="none" 
	d="
M67.850693,30.448038 
	C69.000053,30.294994 70.149406,30.141951 71.646225,30.526527 
	C71.994957,76.717064 71.996239,122.369972 71.997520,168.022888 
	C70.816711,168.005814 69.635910,167.988724 68.190994,167.277084 
	C67.901489,121.204361 67.876091,75.826202 67.850693,30.448038 
z"/>
<path fill="#62CAB0" opacity="1.000000" stroke="none" 
	d="
M72.398499,168.085052 
	C71.996239,122.369972 71.994957,76.717064 71.990891,30.608959 
	C73.165459,30.188295 74.342804,30.222816 75.786224,30.938437 
	C76.026894,76.964714 76.001488,122.309883 75.976082,167.655060 
	C74.917213,167.819107 73.858353,167.983154 72.398499,168.085052 
z"/>
<path fill="#4396F8" opacity="1.000000" stroke="none" 
	d="
M116.350960,168.104004 
	C116.003143,122.372673 116.005020,76.715408 116.009094,30.601360 
	C117.177299,30.153896 118.343292,30.163218 119.784950,30.844597 
	C120.040405,41.153942 119.993706,50.791260 120.004730,60.428513 
	C120.045593,96.152496 120.105492,131.876465 120.158241,167.600433 
	C119.005714,167.792984 117.853180,167.985519 116.350960,168.104004 
z"/>
<path fill="#8755C7" opacity="1.000000" stroke="none" 
	d="
M163.001221,29.006790 
	C163.004562,28.833389 163.007889,28.659988 163.008575,28.226398 
	C164.174622,28.117456 165.343338,28.268702 166.763306,29.137035 
	C167.048920,74.709198 167.083252,119.564270 167.117599,164.419342 
	C166.001480,164.729599 164.885376,165.039856 163.397064,164.827316 
	C163.016998,119.205276 163.009109,74.106033 163.001221,29.006790 
z"/>
<path fill="#61C799" opacity="1.000000" stroke="none" 
	d="
M67.474518,30.474644 
	C67.876091,75.826202 67.901489,121.204361 67.879272,167.103012 
	C66.693718,167.411545 65.555794,167.199585 64.174873,166.269623 
	C63.954647,122.759903 63.990082,79.968185 63.955235,37.176514 
	C63.953796,35.410728 63.293407,33.645485 62.940018,31.879992 
	C64.326118,31.420410 65.712227,30.960829 67.474518,30.474644 
z"/>
<path fill="#B15ECF" opacity="1.000000" stroke="none" 
	d="
M155.687866,28.156551 
	C156.003159,73.522270 155.993759,118.838539 155.971069,164.631989 
	C154.835205,164.857529 153.712646,164.605896 152.295822,163.697693 
	C151.958099,118.587120 151.914612,74.133102 151.871140,29.679085 
	C153.035156,29.155094 154.199173,28.631104 155.687866,28.156551 
z"/>
<path fill="#4DA8F8" opacity="1.000000" stroke="none" 
	d="
M110.516693,30.666801 
	C110.892052,75.909645 110.914207,121.174423 110.890610,166.945343 
	C109.710175,167.181229 108.575493,166.910965 107.211136,165.911758 
	C106.983452,120.776077 106.985451,76.369316 106.987442,31.962566 
	C108.046127,31.537958 109.104805,31.113352 110.516693,30.666801 
z"/>
<path fill="#7851C5" opacity="1.000000" stroke="none" 
	d="
M167.440887,164.385925 
	C167.083252,119.564270 167.048920,74.709198 167.022614,29.378025 
	C168.252441,29.330873 169.474213,29.759819 170.866714,30.942120 
	C171.074936,75.339989 171.112411,118.984497 171.149902,162.629028 
	C170.021332,163.203522 168.892761,163.778015 167.440887,164.385925 
z"/>
<path fill="#50AFF9" opacity="1.000000" stroke="none" 
	d="
M106.652908,31.994659 
	C106.985451,76.369316 106.983452,120.776077 106.964554,165.662628 
	C105.394096,165.322296 103.840553,164.502167 102.145996,162.962433 
	C102.336548,159.796677 102.953102,157.350998 102.957024,154.904343 
	C103.018005,116.861916 103.014404,78.819344 102.956848,40.776917 
	C102.953926,38.845268 102.328270,36.914562 101.992561,34.983418 
	C103.434494,33.997864 104.876434,33.012310 106.652908,31.994659 
z"/>
<path fill="#61C68D" opacity="1.000000" stroke="none" 
	d="
M62.599594,31.920088 
	C63.293407,33.645485 63.953796,35.410728 63.955235,37.176514 
	C63.990082,79.968185 63.954647,122.759903 63.889347,166.068527 
	C62.650513,166.093491 61.454216,165.601547 60.093323,164.341675 
	C59.952511,122.108429 59.998024,80.643066 59.907654,39.177998 
	C59.904560,37.760372 58.537907,36.345715 57.806820,34.929672 
	C59.290939,33.939842 60.775059,32.950012 62.599594,31.920088 
z"/>
<path fill="#63CCC4" opacity="1.000000" stroke="none" 
	d="
M82.737503,33.082748 
	C82.987877,74.344681 82.979774,115.371284 83.039238,156.397781 
	C83.042542,158.677872 83.605057,160.957138 83.963150,163.659210 
	C82.628967,164.862427 81.238914,165.643234 79.457123,165.962311 
	C79.043785,123.740997 79.002533,81.981400 79.044884,40.221886 
	C79.047699,37.441631 79.685196,34.662018 80.027481,31.882105 
	C80.849487,32.203873 81.671494,32.525635 82.737503,33.082748 
z"/>
<path fill="#C061D2" opacity="1.000000" stroke="none" 
	d="
M151.542908,29.732128 
	C151.914612,74.133102 151.958099,118.587120 152.000854,163.507431 
	C150.435822,163.188705 148.871536,162.403702 147.311417,160.945160 
	C147.543243,159.147598 147.969940,158.023560 147.969788,156.899567 
	C147.964142,115.166664 147.919037,73.433754 147.879303,31.700848 
	C148.991104,31.062286 150.102890,30.423729 151.542908,29.732128 
z"/>
<path fill="#3D88F7" opacity="1.000000" stroke="none" 
	d="
M127.946358,34.035408 
	C127.799553,36.434757 127.055702,38.694576 127.051537,40.955757 
	C126.980186,79.663315 126.985313,118.371063 127.040924,157.078674 
	C127.043961,159.191422 127.636024,161.303299 128.017609,163.853394 
	C126.975754,164.970123 125.870186,165.649048 124.402214,165.906616 
	C123.693306,159.215042 123.102486,152.946991 123.047897,146.674271 
	C122.906197,130.390549 122.874550,114.103561 123.031143,97.820114 
	C123.241653,75.929375 123.670090,54.040737 124.004982,32.151199 
	C125.234505,32.732967 126.464020,33.314735 127.946358,34.035408 
z"/>
<path fill="#6A4FC2" opacity="1.000000" stroke="none" 
	d="
M171.483673,162.524200 
	C171.112411,118.984497 171.074936,75.339989 171.063202,31.205048 
	C172.460724,31.673706 173.832504,32.632790 175.157227,34.434723 
	C175.063324,76.817696 175.016495,118.357819 174.969650,159.897934 
	C173.918915,160.738419 172.868179,161.578903 171.483673,162.524200 
z"/>
<path fill="#CF65D4" opacity="1.000000" stroke="none" 
	d="
M147.548370,31.799023 
	C147.919037,73.433754 147.964142,115.166664 147.969788,156.899567 
	C147.969940,158.023560 147.543243,159.147598 147.145126,160.658234 
	C145.708588,159.939896 144.442535,158.834961 143.061996,157.436432 
	C143.297943,154.360046 143.947754,151.577866 143.953293,148.794388 
	C144.022705,113.972794 144.022537,79.150963 143.937561,44.329445 
	C143.932663,42.320423 143.043259,40.313557 142.202240,38.109200 
	C143.631790,35.907543 145.424622,33.902370 147.548370,31.799023 
z"/>
<path fill="#60C582" opacity="1.000000" stroke="none" 
	d="
M57.511242,35.051689 
	C58.537907,36.345715 59.904560,37.760372 59.907654,39.177998 
	C59.998024,80.643066 59.952511,122.108429 59.885483,164.091431 
	C58.235149,163.398682 56.628052,162.188263 54.907906,160.673828 
	C55.196613,158.286224 55.944618,156.203339 55.948677,154.118988 
	C56.019863,117.547241 56.012234,80.975296 55.962910,44.403469 
	C55.960545,42.649174 55.415989,40.895611 54.738068,38.846973 
	C55.306694,37.426064 56.261181,36.299881 57.511242,35.051689 
z"/>
<path fill="#53B6F9" opacity="1.000000" stroke="none" 
	d="
M101.678680,35.097649 
	C102.328270,36.914562 102.953926,38.845268 102.956848,40.776917 
	C103.014404,78.819344 103.018005,116.861916 102.957024,154.904343 
	C102.953102,157.350998 102.336548,159.796677 101.982094,162.674377 
	C100.304955,161.315887 98.650696,159.525848 96.922165,157.406036 
	C97.565125,155.379761 98.902267,153.685379 98.908173,151.986374 
	C99.029694,117.022438 99.022018,82.057922 98.937920,47.093761 
	C98.933380,45.205795 98.035599,43.319977 97.241196,41.195168 
	C98.407448,39.042080 99.886131,37.126980 101.678680,35.097649 
z"/>
<path fill="#514ABE" opacity="1.000000" stroke="none" 
	d="
M179.911987,40.006573 
	C180.720581,43.674427 182.207886,47.338055 182.230743,51.010792 
	C182.419983,81.425766 182.393173,111.842659 182.262085,142.258240 
	C182.247406,145.668518 181.177673,149.074265 179.919861,152.657410 
	C178.828308,151.505981 178.054810,150.179916 178.052292,148.852432 
	C177.986206,113.883980 177.979065,78.915337 178.080536,43.947060 
	C178.084366,42.631802 179.274612,41.319988 179.911987,40.006573 
z"/>
<path fill="#408EF7" opacity="1.000000" stroke="none" 
	d="
M123.664131,32.052795 
	C123.670090,54.040737 123.241653,75.929375 123.031143,97.820114 
	C122.874550,114.103561 122.906197,130.390549 123.047897,146.674271 
	C123.102486,152.946991 123.693306,159.215042 124.066917,165.948105 
	C123.016914,166.793915 121.939804,167.176849 120.510468,167.580109 
	C120.105492,131.876465 120.045593,96.152496 120.004730,60.428513 
	C119.993706,50.791260 120.040405,41.153942 120.099091,31.005829 
	C121.199478,30.981466 122.261375,31.467932 123.664131,32.052795 
z"/>
<path fill="#64CCBB" opacity="1.000000" stroke="none" 
	d="
M79.781273,31.637218 
	C79.685196,34.662018 79.047699,37.441631 79.044884,40.221886 
	C79.002533,81.981400 79.043785,123.740997 79.107803,166.019196 
	C78.287605,166.951294 77.424980,167.364777 76.269211,167.716660 
	C76.001488,122.309883 76.026894,76.964714 76.094032,31.117470 
	C77.268860,30.874380 78.401962,31.133356 79.781273,31.637218 
z"/>
<path fill="#9457CA" opacity="1.000000" stroke="none" 
	d="
M162.585297,29.019753 
	C163.009109,74.106033 163.016998,119.205276 163.042084,164.797089 
	C162.249100,165.466141 161.438919,165.642609 160.321198,165.707489 
	C160.008728,121.803757 159.978973,78.011543 160.090515,34.219688 
	C160.094925,32.488945 161.445847,30.761629 162.585297,29.019753 
z"/>
<path fill="#5D4CC0" opacity="1.000000" stroke="none" 
	d="
M179.871399,39.666336 
	C179.274612,41.319988 178.084366,42.631802 178.080536,43.947060 
	C177.979065,78.915337 177.986206,113.883980 178.052292,148.852432 
	C178.054810,150.179916 178.828308,151.505981 179.641998,152.924988 
	C178.556335,155.229263 177.071182,157.441254 175.277847,159.775589 
	C175.016495,118.357819 175.063324,76.817696 175.201157,34.748886 
	C176.805038,35.922161 178.317932,37.624130 179.871399,39.666336 
z"/>
<path fill="#7AD8F0" opacity="1.000000" stroke="none" 
	d="
M93.730286,47.956230 
	C93.972336,80.459900 93.990059,112.992218 93.984848,145.524536 
	C93.984688,146.500397 93.744331,147.476212 93.309532,148.742584 
	C93.001190,115.639870 92.999283,82.246620 93.024612,48.375954 
	C93.051865,47.898525 93.502609,47.984875 93.730286,47.956230 
z"/>
<path fill="#EA71DB" opacity="1.000000" stroke="none" 
	d="
M138.095398,145.406769 
	C138.299805,145.891190 138.448486,146.737350 138.374512,147.769440 
	C138.114456,147.226440 138.077057,146.497467 138.095398,145.406769 
z"/>
</svg>